<svg width="630" height="637" viewBox="0 0 630 637" fill="none" xmlns="http://www.w3.org/2000/svg">
<path opacity="0.4" fill-rule="evenodd" clip-rule="evenodd" d="M600.15 -591.129C576.406 -564.23 570.576 -556.364 570.576 -551.216C570.576 -547.69 576.94 -488.317 584.715 -419.28C592.492 -350.241 598.363 -293.263 597.764 -292.664C595.675 -290.575 575.998 -288.421 574.919 -290.162C574.322 -291.126 564.61 -344.264 553.337 -408.242C542.062 -472.222 532.292 -524.517 531.625 -524.452C528.443 -524.141 497.933 -482.744 498.571 -479.6C498.973 -477.624 510.446 -433.443 524.07 -381.417C537.692 -329.391 548.845 -285.783 548.852 -284.509C548.858 -283.234 543.246 -280.422 536.38 -278.262C529.515 -276.1 515.7 -270.548 505.68 -265.923C495.662 -261.299 486.689 -257.514 485.74 -257.514C484.791 -257.514 460.396 -296.841 431.523 -344.904C402.653 -392.97 378.805 -432.546 378.529 -432.856C377.817 -433.653 323.062 -439.17 323.062 -438.445C323.062 -438.115 354.327 -394.281 392.54 -341.037C430.753 -287.791 461.996 -243.554 461.972 -242.729C461.922 -241.133 445.899 -229.289 443.786 -229.289C443.098 -229.289 405.825 -275.188 360.96 -331.284C316.095 -387.381 278.323 -433.936 277.025 -434.739C274.903 -436.05 186.122 -441.895 184.532 -440.827C184.17 -440.584 185.09 -419.684 186.58 -394.385L189.285 -348.387L288.197 -269.56C342.601 -226.206 389.498 -188.794 392.414 -186.423L397.714 -182.111L390.601 -173.134C386.691 -168.194 382.796 -164.154 381.947 -164.154C381.098 -164.154 336.543 -194.911 282.937 -232.505C229.33 -270.098 185.247 -300.63 184.971 -300.354C184.389 -299.772 190.512 -246.007 191.228 -245.401C191.491 -245.18 231.276 -221.822 279.639 -193.497C328.002 -165.172 367.88 -141.708 368.255 -141.354C368.633 -141 366.075 -134.993 362.573 -128.006C359.071 -121.019 352.977 -106.752 349.032 -96.3044C345.084 -85.8545 340.803 -77.3348 339.515 -77.3674C338.228 -77.4021 293.109 -88.4838 239.248 -101.995L141.322 -126.56L119.521 -108.988C107.529 -99.3266 97.8611 -91.2563 98.0326 -91.0588C98.2041 -90.8612 149.639 -82.3068 212.332 -72.048C275.025 -61.7913 328.497 -52.9025 331.158 -52.2946C335.572 -51.2893 335.883 -50.2884 334.676 -40.9089C333.951 -35.2529 332.75 -29.9423 332.007 -29.1085C331.267 -28.2726 271.497 -34.1696 199.186 -42.2116L67.7077 -56.8301L34.1761 -26.7919C15.7319 -10.2714 0.355631 4.05402 0.00607107 5.04407C-0.343489 6.03192 14.4466 20.1511 32.8712 36.4176C59.8654 60.2463 67.6252 65.9912 72.823 65.9912C76.3707 65.9912 135.739 59.6275 204.755 51.8481C273.772 44.0688 330.731 38.198 331.334 38.7994C333.43 40.8968 335.579 60.5698 333.829 61.6489C332.861 62.2459 279.723 71.9554 215.749 83.226C151.774 94.4966 99.4547 104.267 99.4851 104.938C99.6175 107.997 141.619 138.641 144.752 137.964C146.693 137.545 190.774 126.065 242.709 112.452C294.646 98.8411 338.126 87.703 339.335 87.703C340.542 87.703 343.823 94.299 346.622 102.358C349.42 110.42 355.035 124.235 359.099 133.061C363.162 141.887 366.486 149.894 366.486 150.854C366.486 151.814 327.159 176.196 279.096 205.038C231.03 233.878 191.454 257.715 191.144 258.008C190.345 258.766 184.832 313.505 185.555 313.505C185.885 313.505 229.719 282.241 282.963 244.028C336.209 205.815 380.446 174.572 381.271 174.596C382.852 174.646 394.711 190.66 394.711 192.749C394.711 193.42 348.834 230.66 292.759 275.503C236.686 320.347 190.132 358.132 189.307 359.471C187.965 361.641 182.083 450.413 183.173 452.035C183.416 452.398 204.316 451.477 229.615 449.988L275.613 447.283L354.44 348.37C397.794 293.967 435.206 247.07 437.577 244.154L441.889 238.854L450.992 246.064C455.999 250.029 459.623 254.504 459.047 256.008C458.47 257.511 427.65 302.016 390.56 354.906C353.467 407.795 323.351 451.302 323.633 451.584C324.224 452.174 377.984 446.067 378.599 445.339C378.82 445.077 399.27 410.177 424.041 367.785C468.498 291.703 481.497 269.652 482.683 268.312C483.017 267.935 489.007 270.492 495.994 273.994C502.981 277.497 517.248 283.591 527.696 287.536C538.146 291.483 546.665 295.765 546.633 297.052C546.598 298.34 535.512 343.476 521.996 397.359L497.421 495.324L505.137 504.832C509.38 510.06 517.413 519.895 522.986 526.689L533.124 539.036L551.998 423.558C562.378 360.042 571.352 306.395 571.938 304.337C572.824 301.225 574.715 300.817 583.189 301.905C588.79 302.624 594.056 303.818 594.891 304.56C595.725 305.301 589.817 365.017 581.76 437.263L567.113 568.619L597.614 602.804C614.389 621.609 628.764 636.996 629.559 637C630.355 637.007 644.277 621.978 660.498 603.603C684.437 576.485 689.991 568.964 689.991 563.662C689.991 560.069 683.63 500.696 675.857 431.72C668.082 362.746 662.211 305.824 662.808 305.225C664.892 303.14 684.572 300.991 685.649 302.73C686.246 303.694 695.958 356.831 707.23 420.809C718.505 484.79 728.276 537.085 728.942 537.02C732.125 536.709 762.635 495.311 761.996 492.167C761.594 490.192 750.122 446.01 736.498 393.984C722.876 341.959 711.723 298.414 711.716 297.215C711.71 296.017 718.299 292.745 726.358 289.946C734.418 287.147 748.235 281.533 757.061 277.468C765.887 273.406 773.883 270.082 774.83 270.082C775.777 270.082 800.172 309.406 829.044 357.472C857.914 405.535 881.763 445.114 882.038 445.424C882.751 446.221 937.505 451.738 937.505 451.013C937.505 450.683 906.241 406.849 868.028 353.605C829.815 300.359 798.572 256.121 798.596 255.296C798.646 253.7 814.669 241.857 816.777 241.857C817.465 241.857 854.721 287.742 899.564 343.826C944.41 399.91 982.247 446.505 983.65 447.372C985.866 448.742 1074.29 454.484 1076.04 453.373C1076.4 453.141 1075.48 432.252 1073.99 406.953L1071.28 360.954L972.37 282.128C917.967 238.774 871.07 201.362 868.154 198.991L862.854 194.679L870.064 185.575C874.029 180.569 878.504 176.945 880.008 177.52C881.511 178.098 926.016 208.918 978.906 246.008C1031.8 283.1 1075.3 313.217 1075.58 312.934C1076.17 312.344 1070.07 258.581 1069.34 257.971C1069.08 257.75 1029.29 234.405 980.929 206.097C932.566 177.787 892.688 154.321 892.312 153.952C891.935 153.581 894.492 147.56 897.994 140.573C901.497 133.587 907.591 119.322 911.536 108.872C915.483 98.4243 919.765 89.9025 921.052 89.935C922.34 89.9697 967.466 101.054 1021.33 114.565L1119.27 139.134L1141.16 121.293L1163.05 103.455L1047.56 84.583C984.047 74.2048 930.395 65.2313 928.337 64.6386C925.225 63.7463 924.817 61.8508 925.905 53.3788C926.624 47.7772 927.818 42.5121 928.56 41.6762C929.301 40.8425 989.017 46.7502 1061.26 54.8075L1192.62 69.4542L1226.8 38.9536C1245.61 22.179 1261 7.80371 1261 7.00903C1261.01 6.21222 1245.98 -7.70935 1227.6 -23.9302C1200.48 -47.8696 1192.96 -53.4236 1187.66 -53.4236C1184.07 -53.4236 1124.7 -47.062 1055.72 -39.2892C986.746 -31.5142 929.824 -25.6434 929.225 -26.2404C927.14 -28.3248 924.991 -48.0043 926.73 -49.0812C927.694 -49.6783 980.831 -59.39 1044.81 -70.6628C1108.79 -81.9377 1161.1 -91.708 1161.04 -92.3745C1160.81 -95.4011 1118.97 -126.078 1115.96 -125.429C1114.1 -125.027 1070.01 -113.554 1017.98 -99.9302C965.959 -86.3082 922.414 -75.1549 921.215 -75.1484C920.017 -75.1419 916.745 -81.7292 913.946 -89.7908C911.147 -97.8524 905.533 -111.668 901.468 -120.493C897.406 -129.319 894.082 -137.316 894.082 -138.262C894.082 -139.209 933.409 -163.604 981.472 -192.477C1029.54 -221.347 1069.11 -245.195 1069.42 -245.471C1070.22 -246.183 1075.74 -300.938 1075.01 -300.938C1074.68 -300.938 1030.85 -269.673 977.605 -231.46C924.359 -193.247 880.121 -162.004 879.296 -162.028C877.696 -162.078 865.857 -178.106 865.857 -180.225C865.857 -180.919 910.068 -216.785 964.102 -259.924C1018.14 -303.066 1064.68 -340.601 1067.53 -343.334C1072.47 -348.083 1072.82 -350.352 1075.27 -393.558C1076.68 -418.444 1077.64 -439.105 1077.39 -439.468C1077.15 -439.83 1056.25 -438.91 1030.95 -437.42L984.954 -434.715L906.128 -335.803C862.774 -281.399 825.362 -234.502 822.991 -231.586L818.679 -226.286L809.701 -233.399C804.762 -237.309 800.721 -241.204 800.721 -242.053C800.721 -242.902 831.478 -287.457 869.072 -341.063C906.666 -394.67 937.197 -438.753 936.921 -439.029C936.34 -439.611 882.575 -433.488 881.969 -432.772C881.747 -432.509 858.39 -392.724 830.065 -344.361C801.74 -295.998 778.276 -256.12 777.922 -255.745C777.568 -255.367 771.56 -257.925 764.573 -261.427C757.587 -264.929 743.322 -271.023 732.872 -274.968C722.424 -278.916 713.902 -283.197 713.935 -284.485C713.97 -285.772 725.056 -330.909 738.571 -384.791L763.147 -482.757L755.431 -492.264C751.188 -497.492 743.155 -507.328 737.581 -514.121L727.444 -526.469L708.57 -410.991C698.19 -347.475 689.216 -293.827 688.63 -291.769C687.744 -288.658 685.853 -288.25 677.379 -289.337C671.777 -290.056 666.51 -291.25 665.676 -291.993C664.84 -292.733 670.737 -352.503 678.779 -424.814L693.398 -556.292L663.36 -589.824C646.839 -608.268 632.514 -623.644 631.524 -623.994C630.536 -624.343 616.417 -609.553 600.15 -591.129Z" fill="black"/>
<path fill-rule="evenodd" clip-rule="evenodd" d="M616.763 -260.663C606.406 -248.931 603.864 -245.5 603.864 -243.254C603.864 -241.717 606.639 -215.82 610.03 -185.709C613.422 -155.597 615.983 -130.745 615.722 -130.484C614.811 -129.573 606.228 -128.633 605.758 -129.393C605.497 -129.813 601.261 -152.99 596.345 -180.895C591.427 -208.8 587.165 -231.609 586.875 -231.581C585.486 -231.446 572.179 -213.389 572.458 -212.018C572.633 -211.156 577.637 -191.886 583.579 -169.195C589.521 -146.503 594.385 -127.483 594.388 -126.927C594.391 -126.371 591.943 -125.145 588.949 -124.202C585.954 -123.259 579.929 -120.838 575.558 -118.821C571.189 -116.804 567.275 -115.153 566.861 -115.153C566.447 -115.153 555.807 -132.306 543.214 -153.269C530.622 -174.233 520.22 -191.495 520.1 -191.63C519.789 -191.978 495.907 -194.384 495.907 -194.068C495.907 -193.924 509.544 -174.805 526.211 -151.583C542.878 -128.359 556.505 -109.064 556.494 -108.704C556.473 -108.008 549.484 -102.842 548.563 -102.842C548.262 -102.842 532.005 -122.861 512.437 -147.329C492.868 -171.796 476.394 -192.101 475.827 -192.452C474.902 -193.024 436.179 -195.573 435.486 -195.107C435.328 -195.001 435.729 -185.885 436.379 -174.851L437.559 -154.788L480.701 -120.407C504.429 -101.497 524.884 -85.1799 526.156 -84.1458L528.468 -82.2651L525.365 -78.3493C523.66 -76.1949 521.961 -74.4326 521.591 -74.4326C521.22 -74.4326 501.787 -87.8476 478.406 -104.245C455.025 -120.642 435.798 -133.958 435.677 -133.838C435.423 -133.584 438.094 -110.134 438.406 -109.87C438.521 -109.773 455.874 -99.5855 476.968 -87.2311C498.062 -74.8768 515.455 -64.6427 515.619 -64.4883C515.784 -64.334 514.668 -61.7137 513.141 -58.6663C511.613 -55.6189 508.955 -49.3962 507.234 -44.8393C505.513 -40.2815 503.645 -36.5655 503.084 -36.5797C502.522 -36.5949 482.843 -41.4283 459.351 -47.3214L416.639 -58.0356L407.13 -50.3716C401.9 -46.1575 397.683 -42.6376 397.758 -42.5514C397.833 -42.4652 420.267 -38.7341 447.611 -34.2596C474.955 -29.7861 498.278 -25.9091 499.439 -25.644C501.364 -25.2055 501.499 -24.7689 500.973 -20.6779C500.656 -18.2111 500.133 -15.8947 499.809 -15.5311C499.486 -15.1665 473.416 -17.7385 441.877 -21.2461L384.532 -27.6222L369.906 -14.5207C361.862 -7.31506 355.155 -1.06686 355.003 -0.63504C354.85 -0.204163 361.301 5.9541 369.337 13.0489C381.111 23.4421 384.496 25.9478 386.763 25.9478C388.31 25.9478 414.204 23.1722 444.306 19.7791C474.409 16.3861 499.252 13.8254 499.515 14.0878C500.429 15.0026 501.367 23.5832 500.603 24.0538C500.181 24.3142 477.005 28.5491 449.102 33.4649C421.198 38.3807 398.378 42.6422 398.392 42.9348C398.449 44.2691 416.769 57.6348 418.135 57.3394C418.982 57.1566 438.209 52.1499 460.86 46.2123C483.513 40.2757 502.478 35.4176 503.005 35.4176C503.532 35.4176 504.962 38.2946 506.183 41.8098C507.404 45.3259 509.853 51.3516 511.625 55.2011C513.397 59.0506 514.847 62.5431 514.847 62.9616C514.847 63.3802 497.694 74.0148 476.731 86.5946C455.767 99.1734 438.505 109.57 438.37 109.698C438.021 110.029 435.617 133.904 435.932 133.904C436.076 133.904 455.195 120.267 478.417 103.601C501.641 86.9336 520.936 73.3065 521.296 73.3169C521.985 73.3387 527.158 80.3236 527.158 81.2346C527.158 81.5273 507.148 97.77 482.69 117.329C458.233 136.888 437.928 153.368 437.568 153.953C436.983 154.899 434.418 193.618 434.893 194.325C434.999 194.484 444.115 194.082 455.149 193.432L475.212 192.253L509.593 149.111C528.503 125.382 544.82 104.927 545.854 103.655L547.735 101.344L551.706 104.489C553.889 106.218 555.47 108.17 555.219 108.826C554.967 109.481 541.525 128.893 525.347 151.961C509.169 175.03 496.033 194.005 496.156 194.129C496.414 194.386 519.862 191.722 520.13 191.405C520.227 191.29 529.147 176.069 539.951 157.579C559.341 124.394 565.011 114.777 565.528 114.193C565.674 114.028 568.286 115.143 571.334 116.671C574.381 118.198 580.604 120.857 585.161 122.577C589.719 124.299 593.434 126.166 593.42 126.728C593.405 127.289 588.57 146.976 582.675 170.478L571.956 213.206L575.321 217.353C577.172 219.634 580.676 223.923 583.107 226.887L587.528 232.272L595.76 181.905C600.288 154.202 604.202 130.803 604.457 129.905C604.844 128.548 605.669 128.37 609.365 128.844C611.808 129.158 614.104 129.679 614.469 130.002C614.833 130.325 612.256 156.371 608.742 187.882L602.353 245.175L615.656 260.085C622.973 268.287 629.243 274.998 629.589 275C629.937 275.003 636.009 268.448 643.084 260.433C653.525 248.606 655.948 245.325 655.948 243.013C655.948 241.445 653.173 215.549 649.783 185.465C646.392 155.381 643.831 130.554 644.092 130.292C645.001 129.383 653.584 128.446 654.054 129.204C654.314 129.625 658.55 152.801 663.467 180.706C668.385 208.612 672.646 231.421 672.937 231.392C674.325 231.257 687.632 213.201 687.354 211.83C687.178 210.968 682.175 191.698 676.232 169.006C670.291 146.314 665.426 127.322 665.423 126.799C665.421 126.276 668.295 124.849 671.81 123.628C675.325 122.408 681.352 119.959 685.201 118.186C689.051 116.414 692.538 114.964 692.951 114.964C693.364 114.964 704.004 132.116 716.597 153.081C729.189 174.044 739.591 191.306 739.711 191.442C740.022 191.789 763.904 194.196 763.904 193.879C763.904 193.736 750.267 174.617 733.601 151.394C716.934 128.17 703.306 108.875 703.317 108.515C703.339 107.819 710.327 102.654 711.247 102.654C711.547 102.654 727.796 122.667 747.355 147.129C766.915 171.59 783.419 191.914 784.03 192.291C784.997 192.889 823.563 195.394 824.325 194.909C824.484 194.807 824.082 185.697 823.432 174.662L822.253 154.599L779.111 120.218C755.382 101.309 734.927 84.9913 733.655 83.9572L731.344 82.0765L734.489 78.1058C736.218 75.9221 738.17 74.3416 738.826 74.5925C739.481 74.8444 758.893 88.2868 781.961 104.464C805.03 120.642 824.005 133.778 824.129 133.655C824.386 133.397 821.722 109.948 821.405 109.682C821.29 109.585 803.938 99.4035 782.844 87.0567C761.75 74.709 744.356 64.474 744.193 64.313C744.028 64.1511 745.143 61.5251 746.671 58.4777C748.198 55.4303 750.857 49.2086 752.577 44.6507C754.299 40.0938 756.166 36.377 756.728 36.3911C757.289 36.4063 776.971 41.2407 800.466 47.1337L843.185 57.8498L852.732 50.0685L862.28 42.288L811.908 34.0568C784.204 29.5302 760.803 25.6164 759.905 25.3578C758.548 24.9686 758.37 24.1419 758.844 20.4468C759.158 18.0035 759.679 15.7071 760.002 15.3425C760.325 14.9789 786.371 17.5556 817.882 21.0699L875.175 27.4582L890.085 14.155C898.287 6.83859 904.998 0.568604 905 0.222015C905.003 -0.125519 898.448 -6.1976 890.433 -13.2725C878.606 -23.714 875.325 -26.1364 873.013 -26.1364C871.445 -26.1364 845.549 -23.3617 815.465 -19.9715C785.381 -16.5804 760.554 -14.0197 760.292 -14.2801C759.383 -15.1892 758.446 -23.7727 759.204 -24.2424C759.625 -24.5028 782.801 -28.7387 810.706 -33.6555C838.612 -38.5731 861.425 -42.8346 861.403 -43.1253C861.301 -44.4454 843.053 -57.8253 841.74 -57.5422C840.928 -57.367 821.698 -52.3631 799.006 -46.4208C776.314 -40.4794 757.322 -35.6148 756.799 -35.6119C756.276 -35.6091 754.849 -38.4822 753.628 -41.9984C752.408 -45.5145 749.959 -51.5402 748.186 -55.3897C746.414 -59.2392 744.964 -62.7269 744.964 -63.1398C744.964 -63.5527 762.117 -74.193 783.081 -86.786C804.044 -99.3781 821.306 -109.78 821.442 -109.9C821.789 -110.211 824.196 -134.093 823.879 -134.093C823.736 -134.093 804.617 -120.456 781.394 -103.789C758.17 -87.1222 738.875 -73.4951 738.515 -73.5055C737.817 -73.5273 732.654 -80.5179 732.654 -81.4422C732.654 -81.7452 751.937 -97.3885 775.505 -116.204C799.072 -135.021 819.373 -151.392 820.615 -152.584C822.772 -154.655 822.925 -155.645 823.993 -174.49C824.609 -185.344 825.024 -194.356 824.918 -194.514C824.812 -194.672 815.697 -194.271 804.662 -193.621L784.599 -192.441L750.218 -149.299C731.309 -125.571 714.991 -105.116 713.957 -103.844L712.077 -101.532L708.161 -104.635C706.006 -106.34 704.244 -108.039 704.244 -108.409C704.244 -108.78 717.659 -128.213 734.056 -151.594C750.453 -174.975 763.77 -194.202 763.649 -194.323C763.396 -194.577 739.945 -191.906 739.681 -191.594C739.585 -191.479 729.397 -174.126 717.043 -153.032C704.688 -131.938 694.454 -114.545 694.3 -114.381C694.145 -114.216 691.525 -115.332 688.478 -116.859C685.43 -118.387 679.209 -121.045 674.651 -122.766C670.094 -124.487 666.377 -126.355 666.391 -126.916C666.406 -127.478 671.242 -147.165 677.137 -170.666L687.855 -213.395L684.49 -217.542C682.64 -219.822 679.136 -224.112 676.705 -227.075L672.283 -232.461L664.051 -182.093C659.524 -154.39 655.61 -130.991 655.354 -130.094C654.968 -128.736 654.143 -128.558 650.447 -129.033C648.004 -129.346 645.706 -129.867 645.342 -130.191C644.978 -130.514 647.55 -156.584 651.058 -188.123L657.434 -245.468L644.332 -260.094C637.126 -268.138 630.878 -274.845 630.446 -274.997C630.016 -275.15 623.857 -268.699 616.763 -260.663Z" fill="white"/>
</svg>
