<svg width="631" height="647" viewBox="0 0 631 647" fill="none" xmlns="http://www.w3.org/2000/svg">
<path opacity="0.4" fill-rule="evenodd" clip-rule="evenodd" d="M-29.8499 32.8712C-53.5939 59.7699 -59.4236 67.6361 -59.4236 72.784C-59.4236 76.3099 -53.0599 135.683 -45.2849 204.72C-37.5077 273.759 -31.6368 330.737 -32.2361 331.336C-34.3248 333.425 -54.0021 335.579 -55.0812 333.838C-55.6783 332.874 -65.39 279.736 -76.6628 215.758C-87.9377 151.778 -97.708 99.4829 -98.3745 99.5481C-101.557 99.8585 -132.067 141.256 -131.429 144.4C-131.027 146.376 -119.554 190.557 -105.93 242.583C-92.3082 294.609 -81.1549 338.217 -81.1484 339.491C-81.1419 340.766 -86.7544 343.578 -93.6196 345.738C-100.485 347.9 -114.3 353.452 -124.32 358.077C-134.338 362.701 -143.311 366.486 -144.26 366.486C-145.209 366.486 -169.604 327.159 -198.477 279.096C-227.347 231.03 -251.195 191.454 -251.471 191.144C-252.183 190.347 -306.938 184.83 -306.938 185.555C-306.938 185.885 -275.673 229.719 -237.46 282.963C-199.247 336.209 -168.004 380.446 -168.028 381.271C-168.078 382.867 -184.101 394.711 -186.214 394.711C-186.902 394.711 -224.175 348.812 -269.04 292.716C-313.905 236.619 -351.677 190.064 -352.975 189.261C-355.097 187.95 -443.878 182.105 -445.468 183.173C-445.83 183.416 -444.91 204.316 -443.42 229.615L-440.715 275.613L-341.803 354.44C-287.399 397.794 -240.502 435.206 -237.586 437.577L-232.286 441.889L-239.399 450.866C-243.309 455.806 -247.204 459.846 -248.053 459.846C-248.902 459.846 -293.457 429.089 -347.063 391.495C-400.67 353.902 -444.753 323.37 -445.029 323.646C-445.611 324.228 -439.488 377.993 -438.772 378.599C-438.509 378.82 -398.724 402.178 -350.361 430.503C-301.998 458.828 -262.12 482.292 -261.745 482.646C-261.367 483 -263.925 489.007 -267.427 495.994C-270.929 502.981 -277.023 517.248 -280.968 527.696C-284.916 538.146 -289.197 546.665 -290.485 546.633C-291.772 546.598 -336.891 535.516 -390.752 522.005L-488.678 497.44L-510.479 515.012C-522.471 524.673 -532.139 532.744 -531.967 532.941C-531.796 533.139 -480.361 541.693 -417.668 551.952C-354.975 562.209 -301.503 571.097 -298.842 571.705C-294.428 572.711 -294.117 573.712 -295.324 583.091C-296.049 588.747 -297.25 594.058 -297.993 594.891C-298.733 595.727 -358.503 589.83 -430.814 581.788L-562.292 567.17L-595.824 597.208C-614.268 613.729 -629.644 628.054 -629.994 629.044C-630.343 630.032 -615.553 644.151 -597.129 660.418C-570.135 684.246 -562.375 689.991 -557.177 689.991C-553.629 689.991 -494.261 683.628 -425.245 675.848C-356.228 668.069 -299.269 662.198 -298.666 662.799C-296.57 664.897 -294.421 684.57 -296.171 685.649C-297.139 686.246 -350.277 695.955 -414.251 707.226C-478.226 718.497 -530.545 728.267 -530.515 728.938C-530.382 731.997 -488.381 762.641 -485.248 761.964C-483.307 761.545 -439.226 750.065 -387.291 736.452C-335.354 722.841 -291.874 711.703 -290.665 711.703C-289.458 711.703 -286.177 718.299 -283.378 726.358C-280.58 734.42 -274.965 748.235 -270.901 757.061C-266.838 765.887 -263.514 773.894 -263.514 774.854C-263.514 775.814 -302.841 800.196 -350.904 829.038C-398.97 857.878 -438.546 881.715 -438.856 882.008C-439.655 882.766 -445.168 937.505 -444.445 937.505C-444.115 937.505 -400.281 906.241 -347.037 868.028C-293.791 829.815 -249.554 798.572 -248.729 798.596C-247.148 798.646 -235.289 814.66 -235.289 816.749C-235.289 817.42 -281.166 854.66 -337.241 899.503C-393.314 944.347 -439.868 982.132 -440.693 983.471C-442.035 985.641 -447.917 1074.41 -446.827 1076.04C-446.584 1076.4 -425.684 1075.48 -400.385 1073.99L-354.387 1071.28L-275.56 972.37C-232.206 917.967 -194.794 871.07 -192.423 868.154L-188.111 862.854L-179.008 870.064C-174.001 874.029 -170.377 878.504 -170.953 880.008C-171.53 881.511 -202.35 926.016 -239.44 978.906C-276.533 1031.8 -306.649 1075.3 -306.367 1075.58C-305.776 1076.17 -252.016 1070.07 -251.401 1069.34C-251.18 1069.08 -230.73 1034.18 -205.959 991.785C-161.502 915.703 -148.503 893.652 -147.317 892.312C-146.983 891.935 -140.993 894.492 -134.006 897.994C-127.019 901.497 -112.752 907.591 -102.304 911.536C-91.8545 915.483 -83.3348 919.765 -83.3674 921.052C-83.4021 922.34 -94.4881 967.476 -108.004 1021.36L-132.579 1119.32L-124.863 1128.83C-120.62 1134.06 -112.587 1143.9 -107.014 1150.69L-96.8764 1163.04L-78.0024 1047.56C-67.6219 984.042 -58.6484 930.395 -58.0622 928.337C-57.1764 925.225 -55.2853 924.817 -46.8112 925.905C-41.2096 926.624 -35.9445 927.818 -35.1085 928.56C-34.2748 929.301 -40.1826 989.017 -48.2398 1061.26L-62.8866 1192.62L-32.3859 1226.8C-15.6113 1245.61 -1.23602 1261 -0.441406 1261C0.355469 1261.01 14.277 1245.98 30.4979 1227.6C54.4373 1200.48 59.9912 1192.96 59.9912 1187.66C59.9912 1184.07 53.6296 1124.7 45.8568 1055.72C38.0818 986.746 32.211 929.824 32.8081 929.225C34.8925 927.14 54.572 924.991 55.6489 926.73C56.2459 927.694 65.9576 980.831 77.2304 1044.81C88.5053 1108.79 98.2756 1161.08 98.9421 1161.02C102.125 1160.71 132.635 1119.31 131.996 1116.17C131.594 1114.19 120.122 1070.01 106.498 1017.98C92.8759 965.959 81.7226 922.414 81.7161 921.215C81.7095 920.017 88.299 916.745 96.3585 913.946C104.418 911.147 118.235 905.533 127.061 901.468C135.887 897.406 143.883 894.082 144.83 894.082C145.777 894.082 170.172 933.406 199.044 981.472C227.914 1029.54 251.763 1069.11 252.038 1069.42C252.751 1070.22 307.505 1075.74 307.505 1075.01C307.505 1074.68 276.241 1030.85 238.028 977.605C199.815 924.359 168.572 880.121 168.596 879.296C168.646 877.7 184.669 865.857 186.777 865.857C187.465 865.857 224.721 911.742 269.564 967.826C314.41 1023.91 352.247 1070.51 353.65 1071.37C355.866 1072.74 444.287 1078.48 446.035 1077.37C446.398 1077.14 445.477 1056.25 443.988 1030.95L441.283 984.954L342.37 906.128C287.967 862.774 241.07 825.362 238.154 822.991L232.854 818.679L240.064 809.575C244.029 804.569 248.504 800.945 250.008 801.52C251.511 802.098 296.016 832.918 348.906 870.008C401.795 907.1 445.302 937.217 445.584 936.934C446.174 936.344 440.067 882.581 439.339 881.971C439.077 881.75 399.292 858.405 350.929 830.097C302.566 801.787 262.688 778.321 262.312 777.952C261.935 777.581 264.492 771.56 267.994 764.573C271.497 757.587 277.591 743.322 281.536 732.872C285.483 722.424 289.765 713.902 291.052 713.935C292.34 713.97 337.466 725.054 391.333 738.565L489.274 763.134L511.164 745.293L533.054 727.455L417.565 708.583C354.047 698.205 300.395 689.231 298.337 688.639C295.225 687.746 294.817 685.851 295.905 677.379C296.624 671.777 297.818 666.512 298.56 665.676C299.301 664.842 359.017 670.75 431.263 678.807L562.619 693.454L596.804 662.954C615.609 646.179 630.996 631.804 631 631.009C631.007 630.212 615.978 616.291 597.603 600.07C570.485 576.13 562.964 570.576 557.662 570.576C554.069 570.576 494.696 576.938 425.72 584.711C356.746 592.486 299.824 598.357 299.225 597.76C297.14 595.675 294.991 575.996 296.73 574.919C297.694 574.322 350.831 564.61 414.809 553.337C478.79 542.062 531.095 532.292 531.043 531.625C530.811 528.599 488.972 497.922 485.961 498.571C484.1 498.973 440.01 510.446 387.984 524.07C335.959 537.692 292.414 548.845 291.215 548.852C290.017 548.858 286.745 542.271 283.946 534.209C281.147 526.148 275.533 512.332 271.468 503.507C267.406 494.681 264.082 486.684 264.082 485.738C264.082 484.791 303.409 460.396 351.472 431.523C399.535 402.653 439.114 378.805 439.424 378.529C440.221 377.817 445.738 323.062 445.013 323.062C444.683 323.062 400.849 354.327 347.605 392.54C294.359 430.753 250.121 461.996 249.296 461.972C247.696 461.922 235.857 445.894 235.857 443.775C235.857 443.081 280.068 407.215 334.102 364.076C388.137 320.934 434.68 283.399 437.529 280.666C442.475 275.917 442.824 273.648 445.273 230.442C446.685 205.556 447.638 184.895 447.395 184.532C447.151 184.17 426.252 185.09 400.953 186.58L354.954 189.285L276.128 288.197C232.774 342.601 195.362 389.498 192.991 392.414L188.679 397.714L179.701 390.601C174.762 386.691 170.721 382.796 170.721 381.947C170.721 381.098 201.478 336.543 239.072 282.937C276.666 229.33 307.197 185.247 306.921 184.971C306.34 184.389 252.575 190.512 251.969 191.228C251.747 191.491 228.39 231.276 200.065 279.639C171.74 328.002 148.276 367.88 147.922 368.255C147.568 368.633 141.56 366.075 134.573 362.573C127.587 359.071 113.322 352.977 102.872 349.032C92.4243 345.084 83.9025 340.803 83.935 339.515C83.9697 338.228 95.0557 293.091 108.571 239.209L133.147 141.243L125.431 131.736C121.188 126.508 113.155 116.672 107.581 109.879L97.444 97.531L78.57 213.009C68.1896 276.525 59.2161 330.173 58.6299 332.231C57.744 335.342 55.853 335.75 47.3788 334.663C41.7772 333.944 36.5099 332.75 35.6762 332.007C34.8403 331.267 40.7372 271.497 48.7792 199.186L63.3978 67.7077L33.3596 34.1761C16.8391 15.7319 2.51367 0.355631 1.52362 0.00607107C0.535706 -0.343489 -13.5835 14.4466 -29.8499 32.8712Z" fill="white"/>
<path fill-rule="evenodd" opacity="0.5" clip-rule="evenodd" d="M-13.2375 386.337C-23.5937 398.069 -26.1364 401.5 -26.1364 403.746C-26.1364 405.283 -23.3608 431.18 -19.9696 461.291C-16.5775 491.403 -14.0168 516.255 -14.2782 516.516C-15.1892 517.427 -23.7718 518.367 -24.2424 517.607C-24.5028 517.187 -28.7387 494.01 -33.6555 466.105C-38.5731 438.2 -42.8346 415.391 -43.1253 415.419C-44.5136 415.554 -57.8206 433.611 -57.5422 434.982C-57.367 435.844 -52.3631 455.114 -46.4208 477.805C-40.4794 500.497 -35.6148 519.517 -35.6119 520.073C-35.6091 520.629 -38.057 521.855 -41.0514 522.798C-44.0458 523.741 -50.0714 526.162 -54.4418 528.179C-58.8112 530.196 -62.725 531.847 -63.1389 531.847C-63.5527 531.847 -74.193 514.694 -86.786 493.731C-99.3781 472.767 -109.78 455.505 -109.9 455.37C-110.211 455.022 -134.093 452.616 -134.093 452.932C-134.093 453.076 -120.456 472.195 -103.789 495.417C-87.1222 518.641 -73.4951 537.936 -73.5055 538.296C-73.5273 538.992 -80.516 544.158 -81.4375 544.158C-81.7377 544.158 -97.9945 524.139 -117.563 499.671C-137.132 475.204 -153.606 454.899 -154.173 454.548C-155.098 453.976 -193.821 451.427 -194.514 451.893C-194.672 451.999 -194.271 461.115 -193.621 472.149L-192.441 492.212L-149.299 526.593C-125.571 545.503 -105.116 561.82 -103.844 562.854L-101.532 564.735L-104.635 568.651C-106.34 570.805 -108.039 572.567 -108.409 572.567C-108.78 572.567 -128.213 559.152 -151.594 542.755C-174.975 526.358 -194.202 513.042 -194.323 513.162C-194.577 513.416 -191.906 536.866 -191.594 537.13C-191.479 537.227 -174.126 547.415 -153.032 559.769C-131.938 572.123 -114.545 582.357 -114.381 582.512C-114.216 582.666 -115.332 585.286 -116.859 588.334C-118.387 591.381 -121.045 597.604 -122.766 602.161C-124.487 606.719 -126.355 610.434 -126.916 610.42C-127.478 610.405 -147.157 605.572 -170.649 599.679L-213.361 588.964L-222.87 596.628C-228.1 600.842 -232.317 604.362 -232.242 604.449C-232.167 604.535 -209.733 608.266 -182.389 612.74C-155.045 617.214 -131.722 621.091 -130.561 621.356C-128.636 621.794 -128.501 622.231 -129.027 626.322C-129.344 628.789 -129.867 631.105 -130.191 631.469C-130.514 631.833 -156.584 629.261 -188.123 625.754L-245.468 619.378L-260.094 632.479C-268.138 639.685 -274.845 645.933 -274.997 646.365C-275.15 646.796 -268.699 652.954 -260.663 660.049C-248.889 670.442 -245.504 672.948 -243.237 672.948C-241.69 672.948 -215.796 670.172 -185.694 666.779C-155.591 663.386 -130.748 660.825 -130.485 661.088C-129.571 662.003 -128.633 670.583 -129.397 671.054C-129.819 671.314 -152.995 675.549 -180.898 680.465C-208.802 685.381 -231.622 689.642 -231.608 689.935C-231.551 691.269 -213.231 704.635 -211.865 704.339C-211.018 704.157 -191.791 699.15 -169.14 693.212C-146.487 687.276 -127.522 682.418 -126.995 682.418C-126.468 682.418 -125.038 685.295 -123.817 688.81C-122.596 692.326 -120.147 698.352 -118.375 702.201C-116.603 706.051 -115.153 709.543 -115.153 709.962C-115.153 710.38 -132.306 721.015 -153.269 733.595C-174.233 746.173 -191.495 756.57 -191.63 756.698C-191.979 757.029 -194.383 780.904 -194.068 780.904C-193.924 780.904 -174.805 767.267 -151.583 750.601C-128.359 733.934 -109.064 720.306 -108.704 720.317C-108.015 720.339 -102.842 727.324 -102.842 728.235C-102.842 728.527 -122.852 744.77 -147.31 764.329C-171.767 783.888 -192.072 800.368 -192.432 800.953C-193.017 801.899 -195.582 840.618 -195.107 841.325C-195.001 841.484 -185.885 841.082 -174.851 840.432L-154.788 839.253L-120.407 796.111C-101.497 772.382 -85.1799 751.927 -84.1458 750.655L-82.2651 748.344L-78.2944 751.489C-76.1107 753.218 -74.5302 755.17 -74.7811 755.826C-75.033 756.481 -88.4754 775.893 -104.653 798.961C-120.831 822.03 -133.967 841.005 -133.844 841.129C-133.586 841.386 -110.138 838.722 -109.87 838.405C-109.773 838.29 -100.853 823.069 -90.0493 804.579C-70.6589 771.394 -64.9893 761.777 -64.4722 761.193C-64.3264 761.028 -61.7137 762.143 -58.6663 763.671C-55.6189 765.198 -49.3962 767.857 -44.8393 769.577C-40.2815 771.299 -36.5655 773.166 -36.5797 773.728C-36.5949 774.289 -41.4302 793.976 -47.3252 817.478L-58.0441 860.206L-54.6785 864.353C-52.8281 866.634 -49.3243 870.923 -46.8934 873.887L-42.4719 879.272L-34.2397 828.905C-29.7122 801.202 -25.7983 777.803 -25.5426 776.905C-25.1562 775.548 -24.3314 775.37 -20.6353 775.844C-18.1921 776.158 -15.8957 776.679 -15.5311 777.002C-15.1674 777.325 -17.7442 803.371 -21.2585 834.882L-27.6468 892.175L-14.3436 907.085C-7.02716 915.287 -0.757202 921.998 -0.410614 922C-0.0630493 922.003 6.009 915.448 13.0839 907.433C23.5254 895.606 25.9478 892.325 25.9478 890.013C25.9478 888.445 23.1731 862.549 19.7829 832.465C16.3918 802.381 13.8311 777.554 14.0916 777.292C15.0006 776.383 23.5841 775.446 24.0538 776.204C24.3142 776.625 28.5501 799.801 33.4669 827.706C38.3846 855.612 42.646 878.421 42.9367 878.392C44.325 878.257 57.632 860.201 57.3536 858.83C57.1784 857.968 52.1745 838.698 46.2322 816.006C40.2908 793.314 35.4262 774.322 35.4233 773.799C35.4205 773.276 38.2946 771.849 41.8098 770.628C45.325 769.408 51.3516 766.959 55.2011 765.186C59.0506 763.414 62.5383 761.964 62.9512 761.964C63.3641 761.964 74.0044 779.116 86.5974 800.081C99.1895 821.044 109.591 838.306 109.711 838.442C110.022 838.789 133.904 841.196 133.904 840.879C133.904 840.736 120.267 821.617 103.601 798.394C86.9336 775.17 73.3065 755.875 73.3169 755.515C73.3387 754.819 80.3274 749.654 81.2469 749.654C81.5471 749.654 97.7965 769.667 117.355 794.129C136.915 818.59 153.419 838.914 154.03 839.291C154.997 839.889 193.563 842.394 194.325 841.909C194.484 841.807 194.082 832.697 193.432 821.662L192.253 801.599L149.111 767.218C125.382 748.309 104.927 731.991 103.655 730.957L101.344 729.077L104.489 725.106C106.218 722.922 108.17 721.342 108.826 721.592C109.481 721.844 128.893 735.287 151.961 751.464C175.03 767.642 194.005 780.778 194.129 780.655C194.386 780.397 191.722 756.948 191.405 756.682C191.29 756.585 173.938 746.404 152.844 734.057C131.75 721.709 114.356 711.474 114.193 711.313C114.028 711.151 115.143 708.525 116.671 705.478C118.198 702.43 120.857 696.209 122.577 691.651C124.299 687.094 126.166 683.377 126.728 683.391C127.289 683.406 146.971 688.241 170.466 694.134L213.185 704.85L222.732 697.068L232.28 689.288L181.908 681.057C154.204 676.53 130.803 672.616 129.905 672.358C128.548 671.969 128.37 671.142 128.844 667.447C129.158 665.004 129.679 662.707 130.002 662.342C130.325 661.979 156.371 664.556 187.882 668.07L245.175 674.458L260.085 661.155C268.287 653.839 274.998 647.569 275 647.222C275.003 646.874 268.448 640.802 260.433 633.727C248.606 623.286 245.325 620.864 243.013 620.864C241.445 620.864 215.549 623.638 185.465 627.029C155.381 630.42 130.554 632.98 130.292 632.72C129.383 631.811 128.446 623.227 129.204 622.758C129.625 622.497 152.801 618.261 180.706 613.345C208.612 608.427 231.425 604.165 231.403 603.875C231.301 602.555 213.053 589.175 211.74 589.458C210.928 589.633 191.698 594.637 169.006 600.579C146.314 606.521 127.322 611.385 126.799 611.388C126.276 611.391 124.849 608.518 123.628 605.002C122.408 601.485 119.959 595.46 118.186 591.61C116.414 587.761 114.964 584.273 114.964 583.86C114.964 583.447 132.117 572.807 153.081 560.214C174.044 547.622 191.306 537.22 191.442 537.1C191.789 536.789 194.196 512.907 193.879 512.907C193.736 512.907 174.617 526.544 151.394 543.211C128.17 559.878 108.875 573.505 108.515 573.494C107.817 573.473 102.654 566.482 102.654 565.558C102.654 565.255 121.937 549.612 145.505 530.796C169.072 511.979 189.373 495.608 190.615 494.416C192.772 492.345 192.925 491.355 193.993 472.51C194.609 461.656 195.024 452.644 194.918 452.486C194.812 452.328 185.697 452.729 174.662 453.379L154.599 454.559L120.218 497.701C101.309 521.429 84.9913 541.884 83.9572 543.156L82.0765 545.468L78.1607 542.365C76.0063 540.66 74.244 538.961 74.244 538.591C74.244 538.22 87.659 518.787 104.056 495.406C120.453 472.025 133.77 452.798 133.649 452.677C133.396 452.423 109.945 455.094 109.681 455.406C109.585 455.521 99.3969 472.874 87.0425 493.968C74.6882 515.062 64.4541 532.455 64.2997 532.619C64.1454 532.784 61.5251 531.668 58.4777 530.141C55.4303 528.613 49.2086 525.955 44.6507 524.234C40.0938 522.513 36.377 520.645 36.3911 520.084C36.4063 519.522 41.2416 499.835 47.1366 476.334L57.8555 433.605L54.4899 429.458C52.6395 427.178 49.1357 422.888 46.7047 419.925L42.2833 414.539L34.0511 464.907C29.5236 492.61 25.6097 516.009 25.354 516.906C24.9677 518.264 24.1429 518.442 20.4468 517.967C18.0035 517.654 15.7061 517.133 15.3425 516.809C14.9779 516.486 17.5499 490.416 21.0576 458.877L27.4336 401.532L14.3321 386.906C7.12646 378.862 0.878265 372.155 0.446442 372.003C0.015564 371.85 -6.14267 378.301 -13.2375 386.337Z" fill="black"/>
</svg>
